#define plus_width 16
#define plus_height 16
static unsigned char plus_bits[] = {
   0xc0, 0x03, 0xc0, 0x03, 0xc0, 0x03, 0xc0, 0x03, 0xc0, 0x03, 0xc0, 0x03,
   0xff, 0xff, 0xff, 0xff, 0xff, 0xff, 0xff, 0xff, 0xc0, 0x03, 0xc0, 0x03,
   0xc0, 0x03, 0xc0, 0x03, 0xc0, 0x03, 0xc0, 0x03 };
